<svg xmlns="http://www.w3.org/2000/svg" width="240" height="240" viewBox="0 0 100 100">
  <!-- Level 10: Display feather - ornate -->
  <!-- Quill base with detail -->
  <path d="M50 98 Q50 90 48 82" stroke="#5D4037" stroke-width="5" fill="none"/>
  <ellipse cx="50" cy="95" rx="3" ry="2" fill="#3E2723"/>
  <!-- Shaft with gradient effect -->
  <path d="M48 82 Q49 50 50 10" stroke="#E8D5B7" stroke-width="3" fill="none"/>
  <!-- Left barbs - detailed layers -->
  <path d="M48 82 Q20 76 12 80 Q28 72 48 76" fill="#FFD166"/>
  <path d="M48 74 Q18 66 10 70 Q26 60 48 67" fill="#FFD166"/>
  <path d="M49 66 Q20 56 12 60 Q28 50 49 59" fill="#FFD166"/>
  <path d="M49 58 Q22 46 15 50 Q30 40 49 51" fill="#FFD166"/>
  <path d="M49 50 Q25 36 19 40 Q32 30 49 43" fill="#FFD166"/>
  <path d="M50 42 Q30 28 25 32 Q35 22 50 36" fill="#FFD166"/>
  <path d="M50 34 Q35 20 31 24 Q40 15 50 28" fill="#FFD166"/>
  <path d="M50 26 Q42 14 39 18 Q45 10 50 22" fill="#FFD166"/>
  <!-- Right barbs -->
  <path d="M48 82 Q80 76 88 80 Q72 72 48 76" fill="#FFD166"/>
  <path d="M48 74 Q82 66 90 70 Q74 60 48 67" fill="#FFD166"/>
  <path d="M49 66 Q80 56 88 60 Q72 50 49 59" fill="#FFD166"/>
  <path d="M49 58 Q78 46 85 50 Q70 40 49 51" fill="#FFD166"/>
  <path d="M49 50 Q75 36 81 40 Q68 30 49 43" fill="#FFD166"/>
  <path d="M50 42 Q70 28 75 32 Q65 22 50 36" fill="#FFD166"/>
  <path d="M50 34 Q65 20 69 24 Q60 15 50 28" fill="#FFD166"/>
  <path d="M50 26 Q58 14 61 18 Q55 10 50 22" fill="#FFD166"/>
  <!-- Tip with detail -->
  <path d="M50 10 Q42 -2 50 -5 Q58 -2 50 10" fill="#FFD166"/>
  <path d="M50 10 Q46 2 50 -5 Q54 2 50 10" fill="#FFC107"/>
</svg>