<svg xmlns="http://www.w3.org/2000/svg" width="240" height="240" viewBox="0 0 100 100">
  <rect width="100" height="100" fill="#000"/>
  <g transform="translate(50,50) scale(0.73) translate(-46,-50)">
    <path d="M46 97 L45 4 C30 12 21 32 20 50 C19 68 25 82 35 92 C38 95 41 96 46 97 C51 96 54 95 57 92 C67 82 73 68 72 50 C71 32 62 12 47 4 Z" fill="#00FFFF"/>
    <path d="M46 97 L45.5 4 C34 10 27 26 26 42 C25 58 29 72 36 84 C38 89 41 94 46 97 C51 94 54 89 56 84 C63 72 67 58 66 42 C65 26 58 10 46.5 4 Z" fill="#00FFFF" opacity="0.45"/>
    <line x1="46" y1="97" x2="45.5" y2="3" stroke="#3E2723" stroke-width="1.2"/>
    <rect x="43.5" y="94" width="5.5" height="5" rx="1" fill="#3E2723"/>
    <g stroke="#00FFFF" stroke-width="0.35" opacity="0.5">
      <line x1="46" y1="88" x2="28" y2="84"/><line x1="46" y1="88" x2="64" y2="84"/>
      <line x1="46" y1="74" x2="26" y2="68"/><line x1="46" y1="74" x2="66" y2="68"/>
      <line x1="46" y1="60" x2="24" y2="52"/><line x1="46" y1="60" x2="68" y2="52"/>
      <line x1="46" y1="46" x2="25" y2="37"/><line x1="46" y1="46" x2="67" y2="37"/>
      <line x1="46" y1="32" x2="28" y2="22"/><line x1="46" y1="32" x2="64" y2="22"/>
      <line x1="46" y1="18" x2="34" y2="12"/><line x1="46" y1="18" x2="58" y2="12"/>
    </g>
  </g>
</svg>
