<svg xmlns="http://www.w3.org/2000/svg" width="240" height="240" viewBox="0 0 100 100">
  <rect width="100" height="100" fill="#000"/>
  <g transform="translate(50,50) scale(0.6) translate(-46,-50)">
    <path d="M46 97 L45 4 C30 12 21 32 20 50 C19 68 25 82 35 92 C38 95 41 96 46 97 C51 96 54 95 57 92 C67 82 73 68 72 50 C71 32 62 12 47 4 Z" fill="#FF00FF"/>
    <line x1="46" y1="97" x2="45.5" y2="3" stroke="#3E2723" stroke-width="1.2"/>
    <rect x="43.5" y="94" width="5.5" height="5" rx="1" fill="#3E2723"/>
    <g stroke="#FF00FF" stroke-width="0.35" opacity="0.5">
      <line x1="46" y1="80" x2="32" y2="76"/><line x1="46" y1="80" x2="60" y2="76"/>
      <line x1="46" y1="60" x2="30" y2="54"/><line x1="46" y1="60" x2="62" y2="54"/>
      <line x1="46" y1="40" x2="32" y2="32"/><line x1="46" y1="40" x2="60" y2="32"/>
    </g>
  </g>
</svg>
