<svg xmlns="http://www.w3.org/2000/svg" width="240" height="240" viewBox="0 0 100 100">
  <!-- Level 7: Advanced feather - purple -->
  <path d="M50 96 Q50 89 48 83" stroke="#5D4037" stroke-width="4.5" fill="none"/>
  <ellipse cx="50" cy="93" rx="2.5" ry="1.8" fill="#3E2723"/>
  <path d="M48 83 Q49 48 50 12" stroke="#D2B48C" stroke-width="2.8" fill="none"/>
  <path d="M48 83 Q22 77 14 81 Q30 73 48 77" fill="#800080"/>
  <path d="M48 75 Q20 67 12 71 Q28 61 48 69" fill="#800080"/>
  <path d="M49 67 Q22 57 14 61 Q30 51 49 61" fill="#800080"/>
  <path d="M49 59 Q24 47 17 51 Q32 41 49 53" fill="#800080"/>
  <path d="M49 51 Q28 37 22 41 Q34 31 49 45" fill="#800080"/>
  <path d="M50 43 Q34 29 29 33 Q40 23 50 37" fill="#800080"/>
  <path d="M50 35 Q40 21 36 25 Q46 16 50 29" fill="#800080"/>
  <path d="M48 83 Q78 77 86 81 Q70 73 48 77" fill="#800080"/>
  <path d="M48 75 Q80 67 88 71 Q72 61 48 69" fill="#800080"/>
  <path d="M49 67 Q78 57 86 61 Q70 51 49 61" fill="#800080"/>
  <path d="M49 59 Q76 47 83 51 Q68 41 49 53" fill="#800080"/>
  <path d="M49 51 Q72 37 78 41 Q66 31 49 45" fill="#800080"/>
  <path d="M50 43 Q66 29 71 33 Q60 23 50 37" fill="#800080"/>
  <path d="M50 35 Q60 21 64 25 Q54 16 50 29" fill="#800080"/>
  <path d="M50 12 Q42 1 50 -3 Q58 1 50 12" fill="#9932CC"/>
</svg>
